<!DOCTYPE svg PUBLIC "-//W3C//DTD SVG 20010904//EN" "http://www.w3.org/TR/2001/REC-SVG-20010904/DTD/svg10.dtd">
<svg version="1.0" xmlns="http://www.w3.org/2000/svg" width="71px" height="138px" viewBox="0 0 710 1380" preserveAspectRatio="xMidYMid meet">
<g id="layer101" fill="#ffffff" stroke="none">
 <path d="M158 1355 c-41 -27 -58 -52 -58 -86 0 -12 -11 -37 -25 -55 l-26 -34 26 -27 c29 -32 30 -35 11 -71 -13 -25 -23 -142 -28 -312 -1 -55 -7 -82 -21 -103 -12 -17 -17 -37 -13 -51 4 -15 0 -28 -9 -36 -22 -18 -18 -35 13 -62 43 -36 221 -262 212 -268 -5 -3 -17 -23 -25 -44 -30 -71 2 -149 75 -186 49 -25 81 -25 130 0 73 37 105 115 75 186 -8 21 -20 41 -25 44 -10 6 163 224 209 262 34 29 39 49 16 68 -9 8 -13 21 -9 37 4 15 0 30 -11 43 -14 15 -18 50 -25 202 -5 130 -12 193 -23 218 -15 34 -14 36 9 68 l25 32 -23 33 c-13 17 -21 38 -20 46 7 28 -22 73 -63 96 -58 35 -98 32 -62 -4 10 -10 8 -16 -9 -29 -16 -14 -41 -17 -125 -17 -117 1 -156 13 -139 45 5 10 10 21 10 24 0 13 -38 3 -72 -19z m268 -297 c28 -13 47 -50 46 -87 -2 -95 -115 -133 -176 -60 -44 52 -29 120 34 151 34 18 55 17 96 -4z m-115 -259 c28 -28 22 -69 -13 -89 -25 -13 -31 -13 -55 0 -38 21 -44 71 -11 94 30 22 54 20 79 -5z m139 -59 c0 -13 -7 -20 -20 -20 -13 0 -20 7 -20 20 0 13 7 20 20 20 13 0 20 -7 20 -20z m-83 -116 c8 -21 -13 -42 -28 -27 -13 13 -5 43 11 43 6 0 13 -7 17 -16z m68 -414 c17 -27 7 -74 -19 -97 -58 -49 -146 -15 -146 56 0 21 3 41 7 44 10 11 151 8 158 -3z"/>
 </g>

</svg>